# xmcd
#
# Track frame offsets:
#	150
#	15411
#	31919
#	46878
#	63184
#	82310
#	101257
#	117270
#	134779
#	150162
#
# Disc length: 2192 seconds
#
# Revision: 0
# Processed by: cddbd v1.5.2PL0 Copyright (c) Steve Scherf et al.
# Submitted via: EZCDAudioConverter 3.1.2.1
#
DISCID=74088e0a
DTITLE=Superhity Disco Polo lato 2014
DYEAR=2014
DGENRE=Disco Polo
TTITLE0=Weekend - Zniosłem tyle kłamstw
TTITLE1=Classic - Miłego dnia
TTITLE2=Mig - Nie ma mocnych na Mariolę
TTITLE3=DJ Isco feat. mc polo - Szalona ruda
TTITLE4=Mejk - Janek
TTITLE5=After party - Nie daj życiu się
TTITLE6=Shine and Din Dong - Hola, Hola
TTITLE7=Fanatic - Zwariowana Gocha
TTITLE8=Basta - W niebie nie ma miejsca
TTITLE9=Czadoman - Ruda tańczy jak szalona
EXTD=
EXTT0=
EXTT1=
EXTT2=
EXTT3=
EXTT4=
EXTT5=
EXTT6=
EXTT7=
EXTT8=
EXTT9=
PLAYORDER=
